<svg width="64" height="64" viewBox="0 0 64 64" fill="none" xmlns="http://www.w3.org/2000/svg">
<g clip-path="url(#clip0)">
<path d="M44.9867 23.0666L44.72 22.9066C44.5052 22.7649 44.2541 22.6884 43.9968 22.6863C43.7395 22.6842 43.4871 22.7566 43.27 22.8947C43.053 23.0328 42.8805 23.2308 42.7735 23.4648C42.6664 23.6987 42.6293 23.9587 42.6667 24.2132C42.7071 24.4802 42.6873 24.7528 42.6089 25.0112C42.5305 25.2695 42.3953 25.5071 42.2133 25.7066C41.9275 26.0067 41.5843 26.2463 41.2041 26.4112C40.8239 26.5762 40.4144 26.663 40 26.6666C39.3032 26.6341 38.6436 26.3427 38.1504 25.8495C37.6572 25.3563 37.3658 24.6967 37.3333 23.9999C37.2762 22.5522 37.4841 21.1062 37.9467 19.7332C38.4878 18.101 38.7317 16.3849 38.6667 14.6666C38.6667 9.33323 38.0267 6.45323 31.5733 0.373235C31.3691 0.172067 31.1055 0.0420647 30.8216 0.00250563C30.5377 -0.0370535 30.2486 0.0159369 29.9972 0.153619C29.7458 0.291302 29.5454 0.506345 29.4258 0.766862C29.3063 1.02738 29.2738 1.3195 29.3333 1.5999C30.88 9.22657 26.2133 13.3332 20.2933 18.3199C18.6667 19.8132 16.7733 21.3332 15.0667 23.0666C7.01334 31.0932 5.33334 38.1599 5.33334 42.6666C5.33334 50.6666 8.29334 60.7732 22.3733 63.9999H22.6933C22.993 64.0076 23.2866 63.914 23.5266 63.7344C23.7666 63.5547 23.939 63.2994 24.0161 63.0097C24.0931 62.72 24.0703 62.4127 23.9513 62.1376C23.8322 61.8624 23.6239 61.6354 23.36 61.4932C18.32 56.8266 17.3333 54.4799 17.3333 51.9999C17.5973 49.4177 18.7138 46.9969 20.5067 45.1199C20.4652 46.219 20.7531 47.3055 21.3333 48.2399C21.9678 49.0365 22.7818 49.6717 23.7087 50.0934C24.6357 50.5152 25.6493 50.7116 26.6667 50.6666C29.8133 50.6666 32 47.9999 32 43.9999C31.7599 41.9694 30.736 40.113 29.1467 38.8266C27.8375 37.7913 26.9548 36.3106 26.6667 34.6666C26.6723 33.6032 26.8899 32.5516 27.3067 31.5732C27.9701 32.7052 28.882 33.6717 29.9733 34.3999C30.64 34.8799 31.6267 35.5199 32.7733 36.2399C37.2 38.9066 45.4133 44.2399 45.4133 49.3066C45.4133 55.9199 42.9867 57.9466 37.9733 61.5466C37.74 61.7095 37.5648 61.9428 37.4735 62.2123C37.3823 62.4819 37.3796 62.7736 37.4661 63.0448C37.5525 63.316 37.7234 63.5524 37.9538 63.7194C38.1842 63.8865 38.4621 63.9754 38.7467 63.9732H39.04C48.72 61.8399 58.7467 53.3066 58.7467 42.6399C58.7467 31.9732 49.44 25.9732 44.9867 23.0666Z" fill="#303C42"/>
</g>
<defs>
<clipPath id="clip0">
<rect width="64" height="64" fill="white"/>
</clipPath>
</defs>
</svg>
