<svg width="64" height="64" viewBox="0 0 64 64" fill="none" xmlns="http://www.w3.org/2000/svg">
<g clip-path="url(#clip0)">
<path d="M60 9.3335H4C2.93913 9.3335 1.92172 9.75492 1.17157 10.5051C0.421427 11.2552 0 12.2726 0 13.3335L0 50.6668C0 51.7277 0.421427 52.7451 1.17157 53.4953C1.92172 54.2454 2.93913 54.6668 4 54.6668H60C61.0609 54.6668 62.0783 54.2454 62.8284 53.4953C63.5786 52.7451 64 51.7277 64 50.6668V13.3335C64 12.2726 63.5786 11.2552 62.8284 10.5051C62.0783 9.75492 61.0609 9.3335 60 9.3335ZM59.1467 12.0002L32 32.9868L4.85333 12.0002H59.1467ZM2.66667 50.1202V13.6802L23.2133 29.5602L2.66667 50.1202ZM4.54667 52.0002L25.3333 31.2135L31.1733 35.7335C31.4065 35.913 31.6924 36.0103 31.9867 36.0103C32.2809 36.0103 32.5669 35.913 32.8 35.7335L38.6667 31.2135L59.4533 52.0002H4.54667ZM61.3333 50.1202L40.7867 29.5602L61.3333 13.6802V50.1202Z" fill="black"/>
</g>
<defs>
<clipPath id="clip0">
<rect width="64" height="64" fill="white"/>
</clipPath>
</defs>
</svg>
