<svg width="64" height="64" viewBox="0 0 64 64" fill="none" xmlns="http://www.w3.org/2000/svg">
<path fill-rule="evenodd" clip-rule="evenodd" d="M3.19564 0H60.8044C62.5693 0 64 1.42647 64 3.19567V60.8044C64 62.5693 62.5736 64 60.8044 64H3.19564C1.43072 64 0 62.5736 0 60.8044V3.19567C0 1.43075 1.42644 0 3.19564 0Z" fill="black"/>
<path fill-rule="evenodd" clip-rule="evenodd" d="M27.1203 50.6846C27.1203 50.2049 27.1034 48.9356 27.0937 47.2499C21.6162 48.4696 20.4605 44.5428 20.4605 44.5428C19.5647 42.21 18.2736 41.589 18.2736 41.589C16.4856 40.3358 18.409 40.3619 18.409 40.3619C20.3855 40.5044 21.4252 42.443 21.4252 42.443C23.1817 45.5282 26.0335 44.6382 27.1566 44.1213C27.3355 42.8161 27.8444 41.9261 28.4066 41.4216C24.034 40.9122 19.4365 39.1793 19.4365 31.4422C19.4365 29.2383 20.2042 27.436 21.4639 26.0242C21.262 25.5135 20.585 23.4609 21.6573 20.6806C21.6573 20.6806 23.3111 20.1377 27.0719 22.7507C28.6423 22.3032 30.3275 22.0776 32.003 22.0702C33.6749 22.0776 35.3589 22.3032 36.9329 22.7507C40.6913 20.1377 42.3427 20.6806 42.3427 20.6806C43.4174 23.4597 42.7416 25.5123 42.5385 26.0242C43.8006 27.436 44.5622 29.2383 44.5622 31.4422C44.5622 39.1991 39.9575 40.906 35.5704 41.4055C36.2789 42.029 36.9075 43.2611 36.9075 45.1452C36.9075 47.8449 36.8821 50.0227 36.8821 50.6846C36.8821 51.2251 37.2375 51.8522 38.2373 51.6551C46.0552 48.9802 51.6923 41.4167 51.6923 32.4995C51.6923 21.3475 42.8746 12.3076 31.9994 12.3076C21.1254 12.3076 12.3077 21.3475 12.3077 32.4995C12.3089 41.4192 17.9508 48.9877 25.776 51.6576C26.76 51.8423 27.1203 51.2189 27.1203 50.6846Z" fill="white"/>
</svg>
