<svg width="64" height="64" viewBox="0 0 64 64" fill="none" xmlns="http://www.w3.org/2000/svg">
<path d="M18.4641 11.0621H20.7512V13.5671H23.2528V6.08594H20.7512V8.5582H18.4641V6.08594H15.9636V13.5671H18.4641V11.0621Z" fill="black"/>
<path d="M26.5401 13.5671H29.0406V8.56836H31.2408V6.08594H24.3399V8.56836H26.5401V13.5671Z" fill="black"/>
<path d="M34.7833 9.86094L36.506 12.5195H36.5477L38.267 9.86094V13.5671H40.7585V6.08594H38.1507L36.5477 8.7185L34.9447 6.08594H32.3381V13.5671H34.7833V9.86094Z" fill="black"/>
<path d="M48.0195 11.0959H44.503V6.08594H42.0025V13.5671H48.0195V11.0959Z" fill="black"/>
<path d="M12.3602 16.8501L15.9365 56.9617L31.9904 61.4174L48.0567 56.964L51.6398 16.8501H12.3602ZM43.881 29.9678H31.9994H25.0545L25.5038 35.006H31.9994H43.4339L42.0849 50.1139L31.9994 52.9079L31.9927 52.9101L21.914 50.1139L21.2107 42.2117H26.1484L26.5142 46.3107L31.9938 47.7918L32.0006 47.7895L37.4858 46.3084L38.057 39.9279H32.0006H21.0063L19.6776 25.0503H31.9994H44.3201L43.881 29.9678Z" fill="black"/>
</svg>
