<svg width="64" height="64" viewBox="0 0 64 64" fill="none" xmlns="http://www.w3.org/2000/svg">
<path d="M33.9468 30.5938V30.5068C33.9287 30.5362 33.9095 30.5655 33.8903 30.5938H33.9468Z" fill="black"/>
<path d="M55.6146 5.26855H8.0659C5.79007 5.26855 3.94434 7.07026 3.94434 9.29078V57.396C3.94434 59.6154 5.79007 61.4171 8.0659 61.4171H55.6146C57.8939 61.4171 59.7396 59.6143 59.7396 57.396V9.29078C59.7396 7.06913 57.8927 5.26855 55.6146 5.26855ZM20.8562 52.272H12.4291V26.9184H20.8562V52.272ZM16.6432 23.4549H16.5867C13.76 23.4549 11.9312 21.5076 11.9312 19.0748C11.9312 16.5879 13.8165 14.6948 16.6985 14.6948C19.5817 14.6948 21.3552 16.5879 21.4116 19.0748C21.4116 21.5076 19.5806 23.4549 16.6432 23.4549ZM51.2447 52.272H42.8176V38.7051C42.8176 35.2981 41.5984 32.9726 38.5492 32.9726C36.2215 32.9726 34.8352 34.5406 34.2245 36.0556C34.0021 36.5963 33.9479 37.3527 33.9479 38.1113V52.2709H25.5208C25.5208 52.2709 25.6314 29.2935 25.5208 26.9172H33.9479V30.506C35.0678 28.7788 37.0704 26.3189 41.5442 26.3189C47.0881 26.3189 51.2458 29.9438 51.2458 37.732V52.272H51.2447Z" fill="black"/>
</svg>
