<svg width="64" height="64" viewBox="0 0 64 64" fill="none" xmlns="http://www.w3.org/2000/svg">
<path d="M43.7467 15.1357C43.44 15.1357 43.232 15.173 43.016 15.2237V15.2583H43.0533C43.1973 15.5357 43.4427 15.7383 43.624 15.9863C43.768 16.2717 43.8907 16.557 44.0347 16.8397L44.072 16.7997C44.3227 16.6237 44.4453 16.341 44.4453 15.9117C44.3387 15.7863 44.3227 15.661 44.232 15.5383C44.1253 15.3597 43.896 15.2717 43.752 15.1303L43.7467 15.1357ZM15.3867 50.3197H12.9147C12.8347 46.1543 12.5867 42.2397 12.1947 38.5597H12.1733L8.41333 50.3197H6.53333L2.8 38.5597H2.77333C2.49867 42.0877 2.32533 46.0077 2.25333 50.3197H0C0.146667 45.077 0.512 40.1597 1.09333 35.573H4.16L7.72 46.4103H7.74133L11.3333 35.573H14.2533C14.8987 40.9463 15.2773 45.8663 15.3947 50.3197H15.3867ZM26.0987 39.4397C25.0907 44.893 23.7627 48.861 22.12 51.333C20.8347 53.2423 19.4267 54.1943 17.8987 54.1943C17.4907 54.1943 16.992 54.0717 16.3893 53.8263V52.509C16.6827 52.5543 17.0293 52.5783 17.4187 52.5783C18.1333 52.5783 18.7067 52.3783 19.144 51.9863C19.6693 51.5063 19.9307 50.9677 19.9307 50.373C19.9307 49.9597 19.7253 49.1197 19.3173 47.8557L16.6133 39.4397H19.04L20.9787 45.733C21.416 47.1623 21.6 48.1597 21.5253 48.7277C22.592 45.8903 23.3333 42.789 23.752 39.4397H26.0987ZM58.9653 50.3197H51.952V35.573H54.312V48.5063H58.9653V50.3197ZM50.112 50.6797L47.4027 49.3463C47.6427 49.1437 47.8747 48.925 48.0827 48.6797C49.2373 47.3303 49.8107 45.325 49.8107 42.6717C49.8107 37.7917 47.896 35.349 44.064 35.349C42.1867 35.349 40.72 35.9677 39.664 37.2077C38.5173 38.5623 37.9413 40.557 37.9413 43.1943C37.9413 45.7863 38.448 47.6903 39.472 48.901C40.4053 49.9943 41.8107 50.541 43.6933 50.541C44.3973 50.541 45.0427 50.453 45.6267 50.2797L49.16 52.3383L50.12 50.6797H50.112ZM41.3333 47.3677C40.7333 46.4077 40.4347 44.861 40.4347 42.7383C40.4347 39.0237 41.5653 37.165 43.8213 37.165C45.0027 37.165 45.8747 37.6103 46.4267 38.4983C47.024 39.4637 47.3227 40.9943 47.3227 43.093C47.3227 46.837 46.192 48.7143 43.936 48.7143C42.7493 48.7143 41.8827 48.269 41.328 47.381L41.3333 47.3677ZM36.912 46.2343C36.912 47.4877 36.4533 48.517 35.536 49.317C34.6187 50.117 33.3947 50.517 31.8453 50.517C30.3973 50.517 29.008 50.0583 27.6507 49.1437L28.2827 47.8743C29.4507 48.461 30.504 48.749 31.456 48.749C32.3413 48.749 33.0373 48.5543 33.544 48.1623C34.0453 47.7703 34.344 47.2183 34.344 46.5223C34.344 45.6423 33.7307 44.8957 32.616 44.269C31.5813 43.701 29.5147 42.517 29.5147 42.517C28.3893 41.6983 27.8293 40.821 27.8293 39.3783C27.8293 38.1783 28.248 37.2183 29.0827 36.485C29.9227 35.7437 31.0027 35.3783 32.336 35.3783C33.7013 35.3783 34.9493 35.741 36.0693 36.4717L35.5013 37.741C34.5413 37.3357 33.5947 37.1277 32.664 37.1277C31.9093 37.1277 31.3253 37.309 30.92 37.677C30.512 38.0397 30.2587 38.5037 30.2587 39.0743C30.2587 39.949 30.8827 40.701 32.0347 41.341C33.0827 41.9143 35.2 43.1277 35.2 43.1277C36.3547 43.941 36.928 44.8077 36.928 46.2423L36.912 46.2343ZM61.9307 30.629C60.504 30.5917 59.3973 30.7357 58.472 31.1303C58.2053 31.237 57.7787 31.237 57.7413 31.5757C57.888 31.717 57.9093 31.949 58.0347 32.1463C58.248 32.5037 58.616 32.981 58.9573 33.2317C59.3307 33.525 59.704 33.8077 60.096 34.0583C60.7893 34.485 61.576 34.7383 62.256 35.1677C62.6427 35.4183 63.0373 35.7357 63.4293 36.0023C63.624 36.1357 63.7493 36.3757 64 36.461V36.4077C63.8773 36.2477 63.84 36.0157 63.72 35.837C63.5413 35.6583 63.3627 35.4983 63.1867 35.3223C62.6693 34.629 62.0267 34.0237 61.3333 33.5223C60.7627 33.133 59.5147 32.589 59.28 31.9357L59.2453 31.8983C59.6347 31.8637 60.0987 31.7223 60.472 31.6157C61.0773 31.4557 61.632 31.4903 62.2587 31.333C62.5413 31.261 62.8267 31.173 63.112 31.0823V30.9223C62.792 30.6023 62.552 30.1677 62.2213 29.869C61.3147 29.0823 60.3093 28.317 59.2773 27.6743C58.7173 27.317 58.008 27.0877 57.4187 26.7837C57.2053 26.677 56.848 26.6237 56.7253 26.445C56.4053 26.0557 56.2187 25.5383 55.992 25.0743C55.48 24.093 54.9787 23.0077 54.5333 21.973C54.2133 21.2743 54.0187 20.5783 53.6267 19.9383C51.7867 16.9063 49.7947 15.069 46.7307 13.2717C46.072 12.8983 45.2827 12.7383 44.448 12.541C44.0027 12.5197 43.5573 12.4877 43.1147 12.469C42.8213 12.3437 42.5387 12.005 42.288 11.8423C41.2747 11.2023 38.6507 9.81566 37.904 11.6503C37.424 12.8077 38.616 13.949 39.0293 14.5357C39.336 14.9437 39.7227 15.4103 39.936 15.869C40.0613 16.1783 40.096 16.4957 40.2213 16.8183C40.504 17.6023 40.7733 18.477 41.1467 19.2103C41.3413 19.5837 41.5547 19.9757 41.8053 20.3117C41.9493 20.5063 42.1947 20.597 42.2507 20.917C42 21.2797 41.984 21.8077 41.84 22.2503C41.2 24.269 41.4507 26.765 42.3573 28.2503C42.6427 28.693 43.3227 29.6743 44.232 29.2983C45.032 28.9783 44.856 27.965 45.0853 27.0717C45.1387 26.8583 45.104 26.717 45.2133 26.573V26.613C45.464 27.1143 45.7147 27.5917 45.944 28.093C46.4933 28.9677 47.4533 29.8743 48.256 30.4797C48.6827 30.7997 49.0213 31.3543 49.5547 31.5517V31.4983H49.5147C49.4 31.3437 49.248 31.269 49.104 31.1437C48.784 30.8237 48.424 30.4317 48.1707 30.077C47.424 29.0717 46.7653 27.9703 46.1787 26.829C45.8853 26.269 45.64 25.6663 45.4053 25.1143C45.2987 24.901 45.2987 24.581 45.12 24.4743C44.8533 24.8637 44.4613 25.2023 44.2667 25.6823C43.928 26.4503 43.8933 27.3943 43.7653 28.3757C43.6933 28.3943 43.728 28.3757 43.6933 28.413C43.1227 28.2743 42.928 27.6823 42.7147 27.1863C42.1813 25.9197 42.0933 23.885 42.5547 22.4263C42.68 22.053 43.2133 20.8743 43 20.517C42.888 20.1783 42.536 19.9837 42.3413 19.709C42.1093 19.3783 41.8613 18.949 41.7013 18.5703C41.2747 17.573 41.0613 16.469 40.5973 15.4717C40.384 15.0103 40.0107 14.5277 39.7067 14.1037C39.368 13.6237 38.9947 13.285 38.7253 12.717C38.6373 12.5223 38.512 12.1997 38.6533 11.9863C38.6907 11.8423 38.7653 11.7863 38.904 11.7463C39.1387 11.5543 39.7973 11.805 40.0293 11.9117C40.688 12.1783 41.2427 12.429 41.7947 12.8023C42.0453 12.9783 42.3147 13.317 42.6347 13.405H43.008C43.5787 13.5303 44.2213 13.4423 44.7547 13.5997C45.7013 13.9037 46.5547 14.3463 47.32 14.8263C49.656 16.309 51.576 18.413 52.88 20.9223C53.0933 21.333 53.1867 21.709 53.3813 22.1357C53.7547 23.0157 54.216 23.9037 54.5947 24.7543C54.968 25.5943 55.328 26.4503 55.864 27.1463C56.1307 27.5197 57.2027 27.7143 57.6827 27.909C58.0373 28.069 58.5893 28.2157 58.9093 28.4103C59.5227 28.7837 60.12 29.2103 60.696 29.621C60.9893 29.8237 61.8773 30.269 61.9307 30.629Z" fill="black"/>
</svg>
