<svg width="64" height="64" viewBox="0 0 64 64" fill="none" xmlns="http://www.w3.org/2000/svg">
<g clip-path="url(#clip0)">
<path d="M31.7127 51.1672C31.5078 51.1672 31.304 51.1138 31.1246 51.0099L29.2525 49.9022C28.9731 49.7457 29.1096 49.6904 29.2017 49.6582C29.5746 49.5288 29.6501 49.4989 30.0481 49.2732C30.0895 49.2499 30.1446 49.2588 30.1874 49.2839L31.6255 50.1378C31.6778 50.1668 31.7513 50.1668 31.7992 50.1378L37.4062 46.9015C37.4584 46.8717 37.4918 46.8117 37.4918 46.7498V40.2788C37.4918 40.2155 37.4583 40.1565 37.4048 40.1243L31.8001 36.8908C31.7485 36.8604 31.6796 36.8604 31.6274 36.8908L26.0241 40.1253C25.9697 40.1565 25.9352 40.2175 25.9352 40.2788V46.7498C25.9352 46.8117 25.9695 46.8703 26.0236 46.8997L27.5596 47.7871C28.393 48.2039 28.9032 47.713 28.9032 47.22V40.8309C28.9032 40.7406 28.9759 40.6693 29.0661 40.6693H29.7771C29.8661 40.6693 29.9397 40.7406 29.9397 40.8309V47.22C29.9397 48.3323 29.3339 48.9702 28.2794 48.9702C27.9554 48.9702 27.7002 48.9702 26.9879 48.6192L25.5176 47.7727C25.1545 47.5627 24.9295 47.1701 24.9295 46.7498V40.2788C24.9295 39.8585 25.1544 39.4659 25.5176 39.2569L31.1246 36.0167C31.4794 35.816 31.951 35.816 32.303 36.0167L37.9096 39.2569C38.2727 39.4669 38.4985 39.8585 38.4985 40.2788V46.7498C38.4985 47.1701 38.2727 47.5613 37.9096 47.7727L32.303 51.01C32.1238 51.1138 31.9204 51.1672 31.7127 51.1672Z" fill="black"/>
<path d="M33.4446 46.7092C30.991 46.7092 30.4771 45.5829 30.4771 44.6382C30.4771 44.5484 30.5492 44.4766 30.6392 44.4766H31.3641C31.4451 44.4766 31.5126 44.5349 31.5252 44.614C31.6347 45.352 31.961 45.7246 33.4448 45.7246C34.626 45.7246 35.1288 45.4573 35.1288 44.8306C35.1288 44.4693 34.9864 44.2011 33.1506 44.0213C31.6166 43.8696 30.6677 43.5306 30.6677 42.3032C30.6677 41.1718 31.6212 40.4971 33.2201 40.4971C35.0163 40.4971 35.9051 41.1205 36.0177 42.4581C36.0219 42.5042 36.0056 42.5485 35.9749 42.5829C35.9441 42.6151 35.9013 42.6346 35.8561 42.6346H35.1284C35.0531 42.6346 34.9864 42.5811 34.9711 42.508C34.7965 41.7314 34.3719 41.4832 33.2201 41.4832C31.9304 41.4832 31.7805 41.9325 31.7805 42.2691C31.7805 42.677 31.9575 42.7957 33.6987 43.0262C35.4218 43.2538 36.2403 43.5765 36.2403 44.7875C36.24 46.0093 35.2213 46.7092 33.4446 46.7092Z" fill="black"/>
<path d="M41.5297 39.9227C41.5297 40.5172 41.0437 41.0033 40.4491 41.0033C39.8601 41.0033 39.3686 40.523 39.3686 39.9227C39.3686 39.3109 39.8719 38.8418 40.4491 38.8418C41.0324 38.8418 41.5297 39.3109 41.5297 39.9227ZM39.543 39.9196C39.543 40.4229 39.9489 40.829 40.4462 40.829C40.9495 40.829 41.3555 40.4144 41.3555 39.9196C41.3555 39.4166 40.944 39.0163 40.4462 39.0163C39.9545 39.0164 39.543 39.4107 39.543 39.9196ZM40.0431 39.3165H40.4608C40.6036 39.3165 40.8839 39.3165 40.8839 39.6368C40.8839 39.8598 40.741 39.9054 40.6549 39.9341C40.821 39.9456 40.8323 40.0542 40.855 40.2086C40.8667 40.3057 40.8839 40.4716 40.9179 40.5288H40.6609C40.6549 40.4718 40.6149 40.1628 40.6149 40.1459C40.5982 40.0771 40.5749 40.043 40.4893 40.043H40.2779V40.5288H40.0432V39.3165H40.0431ZM40.2721 39.8482H40.4606C40.6147 39.8482 40.6436 39.7397 40.6436 39.6768C40.6436 39.5107 40.5291 39.5107 40.4662 39.5107H40.2721V39.8482Z" fill="black"/>
<path d="M14.3499 25.8502C14.3499 25.5918 14.2139 25.3543 13.9909 25.2263L8.04632 21.8051C7.94583 21.746 7.83313 21.7152 7.71902 21.7104C7.70878 21.7104 7.66597 21.7104 7.65755 21.7104C7.54401 21.7151 7.4313 21.7458 7.32927 21.8051L1.38471 25.2263C1.16309 25.3543 1.02527 25.5918 1.02527 25.8502L1.03832 35.0625C1.03832 35.1905 1.10485 35.3098 1.21755 35.3726C1.32787 35.4387 1.46429 35.4387 1.57418 35.3726L5.10709 33.3495C5.33053 33.2168 5.46653 32.9826 5.46653 32.7266V28.4225C5.46653 28.1659 5.60239 27.9284 5.82499 27.801L7.32927 26.9346C7.44141 26.8699 7.56394 26.8381 7.68913 26.8381C7.81151 26.8381 7.93727 26.8699 8.04618 26.9346L9.55004 27.801C9.77264 27.9286 9.90906 28.1661 9.90906 28.4225V32.7266C9.90906 32.9826 10.0469 33.2182 10.2689 33.3495L13.8008 35.3726C13.9116 35.4387 14.05 35.4387 14.1599 35.3726C14.2693 35.3097 14.3383 35.1905 14.3383 35.0625L14.3499 25.8502Z" fill="black"/>
<path d="M42.953 13.1861C42.8417 13.1242 42.706 13.1256 42.5961 13.19C42.4865 13.2545 42.4189 13.3723 42.4189 13.4996V22.6229C42.4189 22.7125 42.3709 22.7956 42.2935 22.8406C42.2157 22.8855 42.1199 22.8855 42.042 22.8406L40.5531 21.9827C40.3309 21.8547 40.0577 21.855 39.8356 21.983L33.8887 25.4151C33.6664 25.5434 33.5295 25.7805 33.5295 26.0369V32.9027C33.5295 33.1592 33.6664 33.3962 33.8886 33.5247L39.8352 36.9594C40.0575 37.0877 40.3312 37.0877 40.5535 36.9594L46.5011 33.5247C46.7232 33.3963 46.8601 33.1592 46.8601 32.9027V15.788C46.8601 15.5278 46.7193 15.2876 46.4918 15.1607L42.953 13.1861ZM42.4013 30.6468C42.4013 30.7108 42.367 30.7702 42.3114 30.8021L40.2696 31.9791C40.2142 32.011 40.1458 32.011 40.0904 31.9791L38.0486 30.8021C37.993 30.7702 37.9587 30.7108 37.9587 30.6468V28.289C37.9587 28.225 37.993 28.1656 38.0484 28.1334L40.0902 26.954C40.1458 26.9219 40.2143 26.9219 40.2699 26.954L42.3117 28.1334C42.3672 28.1656 42.4014 28.225 42.4014 28.289L42.4013 30.6468Z" fill="black"/>
<path d="M62.7552 28.2272C62.9764 28.0987 63.1126 27.8621 63.1126 27.6062V25.9424C63.1126 25.6866 62.9764 25.4498 62.7549 25.3213L56.8463 21.8906C56.624 21.7613 56.3495 21.7612 56.1267 21.8896L50.182 25.3218C49.9599 25.4501 49.823 25.687 49.823 25.9436V32.8075C49.823 33.0656 49.9615 33.3038 50.1857 33.4314L56.0935 36.7978C56.3113 36.9222 56.5784 36.9236 56.7976 36.8018L60.3709 34.8156C60.4844 34.7525 60.5549 34.6335 60.5555 34.5041C60.5565 34.3747 60.4876 34.2548 60.3753 34.1903L54.3928 30.7564C54.2811 30.6924 54.2125 30.5734 54.2125 30.4448V28.2937C54.2125 28.1654 54.2808 28.0467 54.3921 27.9827L56.254 26.9092C56.3648 26.8452 56.5018 26.8452 56.6125 26.9092L58.4754 27.9827C58.5867 28.0467 58.655 28.1654 58.655 28.2937V29.9861C58.655 30.1147 58.7238 30.2334 58.8349 30.2974C58.9462 30.3617 59.0834 30.3612 59.1944 30.2967L62.7552 28.2272Z" fill="black"/>
<path d="M56.3989 27.9057C56.4415 27.881 56.494 27.881 56.5367 27.9057L57.6778 28.564C57.7204 28.5887 57.7467 28.6341 57.7467 28.6835V30.0011C57.7467 30.0505 57.7204 30.0959 57.6778 30.1206L56.5367 30.7789C56.494 30.8036 56.4415 30.8036 56.3989 30.7789L55.2587 30.1206C55.216 30.0959 55.1897 30.0505 55.1897 30.0011V28.6835C55.1897 28.6341 55.216 28.5887 55.2587 28.564L56.3989 27.9057Z" fill="black"/>
<path d="M24.2975 21.9253C24.0766 21.7977 23.8044 21.7977 23.5836 21.9253L17.67 25.3379C17.4488 25.4655 17.3127 25.7012 17.3127 25.9566V32.7873C17.3127 33.0425 17.4488 33.2781 17.6698 33.406L23.5833 36.8214C23.8044 36.949 24.0766 36.949 24.2978 36.8214L30.21 33.406C30.4309 33.2783 30.5669 33.0425 30.5669 32.7873V25.9564C30.5669 25.7012 30.4307 25.4655 30.2097 25.3379L24.2975 21.9253Z" fill="url(#paint0_linear)"/>
<path d="M30.2213 25.338L24.2912 21.9254C24.2327 21.8916 24.1701 21.8674 24.1057 21.8516L17.4474 33.2419C17.5048 33.3064 17.5721 33.3627 17.6467 33.406L23.5868 36.8214C23.7551 36.9185 23.9551 36.9413 24.1385 36.8905L30.3804 25.4603C30.3329 25.4134 30.2797 25.3717 30.2213 25.338Z" fill="url(#paint1_linear)"/>
<path d="M23.3862 20.6709L23.3048 20.7174H23.4135L23.3862 20.6709Z" fill="url(#paint2_linear)"/>
<path d="M30.2247 33.4061C30.3971 33.3064 30.5256 33.1407 30.5743 32.9516L24.0737 21.8454C23.904 21.8116 23.7239 21.8373 23.5711 21.9255L17.6808 25.3177L24.0439 36.9104C24.1347 36.8981 24.2237 36.8686 24.3051 36.8217L30.2247 33.4061Z" fill="url(#paint3_linear)"/>
<path d="M30.776 33.296L30.7368 33.229V33.3187L30.776 33.296Z" fill="url(#paint4_linear)"/>
<path d="M30.2247 33.4061L24.3051 36.8216C24.2237 36.8686 24.1347 36.898 24.0439 36.9103L24.1618 37.1251L30.7368 33.319V33.2293L30.5743 32.9517C30.5256 33.1407 30.397 33.3063 30.2247 33.4061Z" fill="url(#paint5_linear)"/>
<path d="M30.2247 33.4061L24.3051 36.8216C24.2237 36.8686 24.1347 36.898 24.0439 36.9103L24.1618 37.1251L30.7368 33.319V33.2293L30.5743 32.9517C30.5256 33.1407 30.397 33.3063 30.2247 33.4061Z" fill="url(#paint6_linear)"/>
</g>
<defs>
<linearGradient id="paint0_linear" x1="26.3441" y1="24.4668" x2="21.0013" y2="35.3657" gradientUnits="userSpaceOnUse">
<stop stop-color="#41873F"/>
<stop offset="0.3288" stop-color="#418B3D"/>
<stop offset="0.6352" stop-color="#419637"/>
<stop offset="0.9319" stop-color="#3FA92D"/>
<stop offset="1" stop-color="#3FAE2A"/>
</linearGradient>
<linearGradient id="paint1_linear" x1="23.0396" y1="30.1708" x2="38.0306" y2="19.0952" gradientUnits="userSpaceOnUse">
<stop offset="0.1376" stop-color="#41873F"/>
<stop offset="0.4032" stop-color="#54A044"/>
<stop offset="0.7136" stop-color="#66B848"/>
<stop offset="0.9081" stop-color="#6CC04A"/>
</linearGradient>
<linearGradient id="paint2_linear" x1="17.1037" y1="20.6941" x2="30.7757" y2="20.6941" gradientUnits="userSpaceOnUse">
<stop offset="0.0919" stop-color="#6CC04A"/>
<stop offset="0.2864" stop-color="#66B848"/>
<stop offset="0.5968" stop-color="#54A044"/>
<stop offset="0.8624" stop-color="#41873F"/>
</linearGradient>
<linearGradient id="paint3_linear" x1="17.1035" y1="29.3707" x2="30.776" y2="29.3707" gradientUnits="userSpaceOnUse">
<stop offset="0.0919" stop-color="#6CC04A"/>
<stop offset="0.2864" stop-color="#66B848"/>
<stop offset="0.5968" stop-color="#54A044"/>
<stop offset="0.8624" stop-color="#41873F"/>
</linearGradient>
<linearGradient id="paint4_linear" x1="17.1022" y1="33.2738" x2="30.776" y2="33.2738" gradientUnits="userSpaceOnUse">
<stop offset="0.0919" stop-color="#6CC04A"/>
<stop offset="0.2864" stop-color="#66B848"/>
<stop offset="0.5968" stop-color="#54A044"/>
<stop offset="0.8624" stop-color="#41873F"/>
</linearGradient>
<linearGradient id="paint5_linear" x1="17.1035" y1="35.0384" x2="30.776" y2="35.0384" gradientUnits="userSpaceOnUse">
<stop offset="0.0919" stop-color="#6CC04A"/>
<stop offset="0.2864" stop-color="#66B848"/>
<stop offset="0.5968" stop-color="#54A044"/>
<stop offset="0.8624" stop-color="#41873F"/>
</linearGradient>
<linearGradient id="paint6_linear" x1="32.768" y1="24.1439" x2="24.3349" y2="41.3464" gradientUnits="userSpaceOnUse">
<stop/>
</linearGradient>
<clipPath id="clip0">
<rect width="64" height="39.8616" fill="white" transform="translate(0 12)"/>
</clipPath>
</defs>
</svg>
