<svg width="64" height="64" viewBox="0 0 64 64" fill="none" xmlns="http://www.w3.org/2000/svg">
<path d="M18.6933 27.2186H16.176L14.8027 34.28H17.0373C18.52 34.28 19.624 34 20.3493 33.4426C21.0747 32.8826 21.5627 31.952 21.816 30.6453C22.0613 29.392 21.9493 28.5066 21.4853 27.992C21.0187 27.4773 20.0907 27.2186 18.6933 27.2186ZM32 15.168C14.328 15.168 0 22.704 0 32C0 41.296 14.328 48.8346 32 48.8346C49.672 48.8346 64 41.296 64 32C64 22.704 49.672 15.168 32 15.168ZM23.3067 35.0373C22.6107 35.704 21.7733 36.2053 20.8613 36.5066C19.9653 36.7946 18.8213 36.944 17.4347 36.944H14.2853L13.4133 41.4266H9.73867L13.0187 24.5573H20.0853C22.2107 24.5573 23.76 25.1146 24.736 26.232C25.712 27.3466 26.0053 28.904 25.616 30.904C25.4669 31.6954 25.1923 32.4579 24.8027 33.1626C24.4213 33.8426 23.9227 34.4693 23.3067 35.0373ZM34.0373 36.944L35.4853 29.48C35.6533 28.632 35.5893 28.0506 35.304 27.744C35.0187 27.4346 34.408 27.28 33.472 27.28H30.56L28.6827 36.9466H25.0347L28.3147 20.0746H31.96L31.088 24.56H34.336C36.3813 24.56 37.7893 24.9173 38.5653 25.6293C39.3413 26.3413 39.5733 27.496 39.2667 29.0933L37.7413 36.944H34.0373ZM54.296 30.904C54.1493 31.696 53.8746 32.4589 53.4827 33.1626C53.1013 33.8426 52.6027 34.4693 51.9867 35.0373C51.2903 35.7019 50.4551 36.2038 49.5413 36.5066C48.6453 36.7946 47.5013 36.944 46.112 36.944H42.9653L42.0933 41.4293H38.4187L41.6987 24.56H48.7627C50.888 24.56 52.4373 25.1173 53.4133 26.2346C54.3893 27.3466 54.6853 28.904 54.296 30.904ZM47.376 27.2186H44.8613L43.4853 34.28H45.72C47.2053 34.28 48.3093 34 49.032 33.4426C49.7573 32.8826 50.2453 31.952 50.5013 30.6453C50.7467 29.392 50.632 28.5066 50.168 27.992C49.704 27.4773 48.7707 27.2186 47.376 27.2186Z" fill="black"/>
</svg>
