<svg width="64" height="64" viewBox="0 0 64 64" fill="none" xmlns="http://www.w3.org/2000/svg">
<path d="M31.9467 37.3119C34.904 37.3119 37.3013 34.9145 37.3013 31.9572C37.3013 28.9999 34.904 26.6025 31.9467 26.6025C28.9894 26.6025 26.592 28.9999 26.592 31.9572C26.592 34.9145 28.9894 37.3119 31.9467 37.3119Z" fill="black"/>
<path d="M31.9467 44.224C24.4267 44.224 17.856 43.3387 12.9387 41.6534C9.74933 40.5654 7.03999 39.1147 5.10933 37.4614C3.06133 35.712 1.97333 33.8027 1.97333 31.9574C1.97333 28.416 5.85599 24.9494 12.3733 22.688C17.7067 20.832 24.6613 19.7974 31.936 19.7974C39.0827 19.7974 45.9413 20.8 51.2427 22.6347C54.3467 23.7014 56.96 25.088 58.816 26.624C60.832 28.3094 61.8987 30.1547 61.8987 31.9574C61.8987 35.6374 57.5573 39.36 50.56 41.6747C45.6107 43.3174 38.9973 44.224 31.9467 44.224ZM31.9467 22.3574C25.0453 22.3574 18.2187 23.36 13.2267 25.0987C7.23199 27.1894 4.54399 30.048 4.54399 31.9574C4.54399 33.9414 7.43466 37.0667 13.7707 39.232C18.4213 40.8214 24.7147 41.664 31.9467 41.664C38.7307 41.664 45.056 40.8107 49.76 39.2427C56.3413 37.056 59.3493 33.9307 59.3493 31.9574C59.3493 30.944 58.5813 29.7494 57.184 28.5867C55.5733 27.2427 53.2267 26.016 50.4213 25.0454C45.376 23.3174 38.816 22.3574 31.9467 22.3574Z" fill="black"/>
<path d="M19.7973 58.6453C18.7093 58.6453 17.7493 58.4106 16.9387 57.9413C13.8773 56.1706 12.8107 51.072 14.1013 44.2986C15.1573 38.7413 17.7387 32.2133 21.376 25.9093C24.9493 19.7226 29.2373 14.2826 33.472 10.6026C35.9467 8.44796 38.4533 6.8693 40.7147 6.0373C43.1787 5.13063 45.312 5.13063 46.8693 6.02663C50.0587 7.8613 51.1147 13.4933 49.6213 20.704C48.5653 25.824 46.048 32 42.528 38.112C38.7733 44.6186 34.72 49.8666 30.8053 53.2906C28.2667 55.5093 25.6533 57.1306 23.264 57.9733C22.016 58.4213 20.8427 58.6453 19.7973 58.6453ZM22.4747 26.5493L23.584 27.1893C20.1387 33.1626 17.5893 39.5733 16.608 44.7786C15.424 51.0186 16.5653 54.7733 18.208 55.7226C18.6133 55.9573 19.1467 56.0853 19.7973 56.0853C21.92 56.0853 25.2587 54.7413 29.12 51.3706C32.8213 48.1386 36.6933 43.104 40.3093 36.8426C43.7013 30.9653 46.112 25.056 47.1147 20.2026C48.512 13.408 47.3067 9.24796 45.5893 8.25596C44.7147 7.75463 43.296 7.81863 41.5893 8.44796C39.616 9.1733 37.3867 10.592 35.1467 12.544C31.1253 16.0426 27.0187 21.248 23.584 27.2L22.4747 26.5493Z" fill="black"/>
<path d="M44.096 58.6775C41.1946 58.6775 37.5146 56.9281 33.6746 53.6215C29.3866 49.9308 25.024 44.4375 21.376 38.1335C17.792 31.9468 15.232 25.5148 14.1546 20.0001C13.5253 16.7788 13.408 13.8241 13.8133 11.4455C14.2613 8.85347 15.3173 7.00813 16.8853 6.10147C20.064 4.25613 25.472 6.1548 30.976 11.0508C34.88 14.5175 38.976 19.7868 42.5066 25.8881C46.272 32.3948 48.8 38.5281 49.8026 43.6268C50.4533 46.9335 50.56 50.0055 50.1013 52.5015C49.6106 55.1575 48.5013 57.0455 46.9013 57.9735C46.1013 58.4428 45.152 58.6775 44.096 58.6775ZM23.5946 36.8535C27.0506 42.8268 31.3386 48.2348 35.3493 51.6801C40.16 55.8188 43.9786 56.7148 45.632 55.7548C47.3493 54.7628 48.608 50.6988 47.3066 44.1281C46.3466 39.3068 43.9253 33.4401 40.2986 27.1788C36.896 21.3015 32.9813 16.2561 29.28 12.9708C24.096 8.3628 19.8933 7.32813 18.176 8.32013C17.3013 8.82147 16.6506 10.0908 16.3413 11.8828C15.9893 13.9521 16.096 16.5975 16.672 19.5095C17.696 24.7468 20.1493 30.9015 23.5946 36.8535Z" fill="black"/>
</svg>
